# xmcd CD database file
#
# Track frame offsets:
#	150
#	18642
#	80707
#	103325
#	205782
#
# Disc length: 2822 seconds
#
# Revision: 0
# Processed by: cddbd v1.5.2PL0 Copyright (c) Steve Scherf et al.
# Submitted via: CDex 1.70beta2
#
DISCID=400b0405
DTITLE=Masahiko Togashi - Spiritual Nature
DYEAR=1975
DGENRE=Jazz
TTITLE0=The Beginning
TTITLE1=Moving
TTITLE2=On the Footpath
TTITLE3=Spiritual Nature
TTITLE4=Epilogue
EXTD=YEAR: 1975
EXTT0=
EXTT1=
EXTT2=
EXTT3=
EXTT4=
PLAYORDER=
